
<svg xmlns="http://www.w3.org/2000/svg" version="1.1" xmlns:xlink="http://www.w3.org/1999/xlink" preserveAspectRatio="none" x="0px" y="0px" width="192px" height="16px" viewBox="0 0 192 16">
<defs>
<g id="Symbol_1_0_Layer0_0_FILL">
<path fill="#000000" stroke="none" d="
M 20.75 3
Q 20.6 3 20.45 3
L 20.45 2.7
Q 20.3 2.7 20.15 2.7
L 20.15 2.5
Q 20 2.5 19.85 2.5
L 19.85 2.25
Q 19.75 2.25 19.6 2.25
L 19.6 2
Q 19.45 2 19.3 2
L 19.3 1.75
Q 19.15 1.75 18.95 1.75
L 18.95 1.5
Q 18.8 1.5 18.7 1.5
L 18.7 1.25 17.75 1.25
Q 17.3 1.25 16.8 1.25
L 16.8 1.4
Q 16.65 1.4 16.45 1.4
L 16.45 1.6
Q 16.3 1.6 16.15 1.6
L 16.15 1.85
Q 16 1.85 15.85 1.85
L 15.85 2.15
Q 15.7 2.15 15.55 2.15
L 15.55 2.4
Q 15.4 2.4 15.25 2.4
L 15.25 2.7
Q 15.1 2.7 14.95 2.7
L 14.95 3
Q 14.8 3 14.65 3
L 14.65 3.25 14.35 3.25 14.35 3.5
Q 14.2 3.5 14.05 3.5
L 14.05 3.55 14 3.55 14 3.8
Q 13.95 3.8 13.9 3.8 13.85 3.8 13.75 3.8
L 13.75 4.05
Q 13.7 4.05 13.65 4.05
L 13.6 4.05
Q 13.55 4.05 13.5 4.05
L 13.45 4.05 13.45 4.65
Q 13.85 4.9 14.2 5.2
L 14.4 5
Q 14.6 5.15 14.8 5.35
L 15 5.1
Q 15.1 5.2 15.2 5.25
L 15.35 5.1
Q 15.45 5.15 15.55 5.2
L 15.7 5
Q 15.85 5.1 15.95 5.15
L 16.1 4.95
Q 16.15 4.95 16.25 5
L 16.25 5.05
Q 16.3 5.1 16.35 5.1
L 16.4 5 16.75 4.95
Q 16.75 5.1 16.8 5.2
L 17.3 5.15
Q 17.3 5.25 17.35 5.4
L 17.85 5.3
Q 17.9 5.45 17.9 5.55
L 18.45 5.45
Q 18.45 5.6 18.5 5.75
L 20.55 5.6
Q 20.55 5.55 20.55 5.5
L 20.55 5.45
Q 20.55 5.35 20.55 5.3
L 21.1 5.25
Q 21.1 5.15 21.1 5
L 21.35 5
Q 21.35 4.85 21.3 4.7
L 21.6 4.7
Q 21.6 4.55 21.55 4.45
L 21.85 4.4
Q 21.8 4.15 21.8 3.9
L 21.55 3.9 21.55 3.85 21.5 3.85 21.5 3.55
Q 21.3 3.55 21.15 3.55
L 21.15 3.6 21.1 3.6 21.1 3.3
Q 20.95 3.3 20.75 3.3
L 20.75 3
M 35.5 2.85
L 35.5 2.6
Q 35.35 2.6 35.2 2.6
L 35.2 2.55 35.15 2.55 35.15 2.35
Q 35.05 2.35 34.9 2.35
L 34.9 2.15
Q 34.75 2.15 34.6 2.15
L 34.6 1.9
Q 34.5 1.9 34.35 1.9
L 34.35 1.6
Q 34.2 1.6 34 1.6
L 34 1.35
Q 33.85 1.35 33.7 1.35
L 33.7 1.1 32.8 1.1
Q 32.3 1.1 31.85 1.1
L 31.85 1.25
Q 31.65 1.25 31.5 1.25
L 31.5 1.5
Q 31.35 1.5 31.15 1.5
L 31.15 1.75
Q 31 1.75 30.85 1.75
L 30.85 2.05
Q 30.7 2.05 30.55 2.05
L 30.55 2.3
Q 30.45 2.3 30.3 2.3
L 30.3 2.55
Q 30.15 2.55 30 2.55
L 30 2.9
Q 29.85 2.9 29.65 2.9
L 29.65 3.15 29.4 3.15 29.4 3.4
Q 29.25 3.4 29.05 3.4
L 29.05 3.65
Q 29 3.65 28.95 3.65 28.85 3.65 28.75 3.65
L 28.75 3.9
Q 28.7 3.9 28.65 3.9 28.6 3.9 28.55 3.9
L 28.5 3.9 28.5 4.5
Q 28.85 4.8 29.25 5.1
L 29.4 4.85
Q 29.6 5.05 29.85 5.2
L 30 4.95
Q 30.1 5.05 30.25 5.15
L 30.4 4.95
Q 30.5 5 30.6 5.1
L 30.75 4.85
Q 30.85 4.95 30.95 5.05
L 31.15 4.8
Q 31.2 4.85 31.25 4.9
L 31.3 4.9 31.35 4.95 31.45 4.9 31.8 4.8
Q 31.8 4.95 31.8 5.1
L 32.3 5
Q 32.35 5.15 32.35 5.25
L 32.9 5.2
Q 32.9 5.3 32.95 5.45
L 33.5 5.35
Q 33.5 5.5 33.5 5.65
L 35.6 5.45 35.6 5.4
Q 35.6 5.35 35.6 5.3 35.6 5.25 35.55 5.15
L 36.15 5.15
Q 36.15 5 36.1 4.9
L 36.35 4.85
Q 36.35 4.75 36.35 4.6
L 36.6 4.55
Q 36.6 4.45 36.6 4.3
L 36.85 4.3
Q 36.85 4.05 36.85 3.75
L 36.55 3.75 36.55 3.45
Q 36.35 3.45 36.15 3.45
L 36.15 3.15
Q 35.95 3.15 35.8 3.15
L 35.8 2.85
Q 35.65 2.85 35.5 2.85
M 34.25 1.95
L 34.25 2 33.95 1.95
Q 34.1 1.95 34.25 1.95
M 49.75 1.5
Q 49.6 1.5 49.45 1.5
L 49.45 1.25 49.25 1.25
Q 49.15 1.25 49 1.25 48.95 1.25 48.85 1.25
L 48.85 1.5
Q 48.7 1.5 48.55 1.5
L 48.5 1.5 48.5 1.95 48.55 1.95 48.55 2.05
Q 48.4 2.05 48.25 2.05
L 48.25 3.15
Q 48.15 3.15 48.05 3.15
L 48.05 4.55
Q 48.15 4.55 48.25 4.55
L 48.25 5.2
Q 48.45 5.2 48.6 5.2
L 48.8 5.15
Q 48.8 5.3 48.85 5.4
L 49.4 5.35
Q 49.4 5.45 49.4 5.6
L 49.85 5.5 49.85 5.4
Q 50 5.4 50.2 5.4
L 50.2 4.7 50.25 4.7 50.25 3.35
Q 50.15 3.35 50 3.35
L 50 2.7 50.05 2.7 50.05 2.25
Q 49.9 2.25 49.75 2.25
L 49.75 1.5
M 65.8 1.75
L 64.6 1.75 64.6 4.9 64.55 4.9 64.55 5.3 64.6 5.35 64.6 5.4
Q 64.75 5.4 64.9 5.4
L 65.45 5.4
Q 65.55 5.4 65.65 5.4
L 65.65 5.35
Q 65.7 5.35 65.8 5.35
L 65.8 1.75
M 80.15 4.6
L 79.9 4.9
Q 80.05 5 80.25 5.1
L 80.4 4.85
Q 80.3 4.7 80.15 4.6
M 79.8 5
L 79.6 5.3
Q 79.75 5.4 79.95 5.55
L 80.1 5.3
Q 80 5.15 79.8 5
M 77.65 3.2
L 77.4 3.45
Q 77.5 3.6 77.65 3.75
L 77.9 3.55
Q 77.8 3.4 77.65 3.2
M 77.8 3.15
Q 77.9 3.3 78.05 3.45
L 78.35 3.2
Q 78.2 3.05 78.1 2.9
L 77.8 3.15
M 77.25 1.6
Q 77.3 1.4 77.35 1.2
L 77 1.15
Q 76.95 1.35 76.95 1.55
L 77.25 1.6
M 77.8 1.7
Q 77.85 1.5 77.85 1.35
L 77.5 1.25
Q 77.45 1.45 77.45 1.65
L 77.8 1.7
M 84.4 4.3
Q 84.2 4.4 84.1 4.6
L 84.35 4.8
Q 84.45 4.65 84.6 4.5
L 84.4 4.3
M 83.95 3.95
Q 83.8 4.05 83.7 4.2
L 83.95 4.45
Q 84.1 4.3 84.25 4.1
L 83.95 3.95
M 82.15 5.4
L 82.3 5.7
Q 82.45 5.6 82.65 5.5
L 82.5 5.25
Q 82.35 5.25 82.15 5.4
M 82.05 5.25
Q 82.25 5.15 82.4 5
L 82.2 4.8
Q 82 4.85 81.9 4.95
L 82.05 5.25
M 85.55 2.25
Q 85.5 2.4 85.5 2.65
L 85.85 2.7
Q 85.85 2.5 85.85 2.25
L 85.55 2.25
M 84.95 2.6
L 85.3 2.6
Q 85.35 2.4 85.3 2.2
L 85 2.2
Q 84.95 2.4 84.95 2.6
M 84 0.25
Q 84.15 0.45 84.25 0.55
L 84.55 0.35
Q 84.4 0.2 84.25 0.05
L 84 0.25
M -0.3 0.65
Q -0.45 0.65 -0.55 0.65
L -0.55 0.85
Q -0.7 0.85 -0.85 0.85
L -0.85 1.05 -0.9 1.05
Q -1.5 1.05 -2.05 1.05 -2.55 1.05 -3.05 1.05
L -3.05 1.2
Q -3.15 1.2 -3.25 1.2 -3.8 1.2 -4.4 1.2 -5 1.2 -5.65 1.2
L -5.65 1.7
Q -5.3 1.95 -5 2.25
L -4.8 1.95
Q -4.6 2.15 -4.45 2.3
L -4.25 2.05
Q -4.25 2.1 -4.2 2.15
L -4.25 2.15 -4.25 2.2
Q -4.15 2.3 -4.05 2.35
L -4 2.35 -4 2.3 -3.95 2.3 -3.95 2.25 -3.9 2.25 -3.9 2.2 -3.85 2.2 -3.85 2.15
Q -3.75 2.3 -3.6 2.4
L -3.7 2.5
Q -3.55 2.6 -3.45 2.7
L -3.6 2.85
Q -3.4 3.05 -3.2 3.2
L -3.35 3.4
Q -2.7 3.9 -2.05 4.45
L -1.85 4.2
Q -1.65 4.35 -1.45 4.55
L -1.3 4.3
Q -1.15 4.4 -1.05 4.45
L -0.9 4.3
Q -0.8 4.35 -0.7 4.45
L -0.55 4.2
Q -0.45 4.3 -0.3 4.35
L -0.15 4.15
Q -0.1 4.15 -0.05 4.25
L 0 4.25
Q 0.05 4.3 0.1 4.3
L 0.15 4.25 0.5 4.15
Q 0.5 4.3 0.55 4.45
L 1.05 4.35
Q 1.05 4.5 1.05 4.6
L 1.6 4.5
Q 1.65 4.65 1.65 4.75
L 2.2 4.7
Q 2.2 4.8 2.2 4.95
L 4.3 4.8
Q 4.3 4.75 4.3 4.7
L 4.3 4.65
Q 4.3 4.55 4.3 4.5
L 4.85 4.45
Q 4.85 4.35 4.8 4.2
L 5.05 4.2
Q 5.05 4.05 5.05 3.9
L 5.35 3.9
Q 5.35 3.8 5.3 3.65
L 5.6 3.6
Q 5.55 3.35 5.55 3.1
L 5.85 3.05
Q 5.8 2.95 5.8 2.85
L 6.1 2.8
Q 6.05 2.55 6.05 2.3
L 6.3 2.25
Q 6.3 2.1 6.3 1.95 6.3 1.7 6.3 1.5
L 6.25 1.5 6.25 1.25
Q 6.15 1.25 6.05 1.25 5.5 1.25 4.9 1.25 4.35 1.25 3.75 1.25 3.5 1.25 3.2 1.25
L 3.2 1
Q 3.05 1 2.95 1
L 2.95 0.7
Q 2.8 0.7 2.6 0.7
L 2.6 0.45 1.5 0.45
Q 0.9 0.45 0.35 0.45 0 0.45 -0.3 0.45
L -0.3 0.65
M -14.8 -0.3
Q -15.35 -0.3 -15.95 -0.3 -16.35 -0.3 -16.7 -0.3
L -16.8 -0.3 -16.8 0 -22.35 0 -22.35 0.1 -22.4 0.1 -22.4 0.15 -22.45 0.15 -22.45 0.2
Q -22.35 0.3 -22.3 0.35
L -22.25 0.35
Q -22.2 0.4 -22.15 0.45 -22 0.6 -21.8 0.7
L -22 0.95
Q -21.65 1.2 -21.25 1.5
L -21.1 1.25
Q -20.9 1.4 -20.7 1.55
L -20.55 1.35
Q -20.5015625 1.3984375 -20.45 1.4
L -20.5 1.4 -20.5 1.45
Q -20.4 1.55 -20.3 1.65
L -20.3 1.6 -20.25 1.6 -20.25 1.55 -20.2 1.55 -20.2 1.5 -20.15 1.5 -20.15 1.45
Q -20 1.6 -19.9 1.7
L -19.95 1.75
Q -19.85 1.85 -19.75 1.95
L -19.9 2.15
Q -19.7 2.3 -19.45 2.5
L -19.65 2.7
Q -18.95 3.2 -18.35 3.7
L -18.15 3.45
Q -17.95 3.65 -17.7 3.8
L -17.55 3.6
Q -17.45 3.65 -17.3 3.75
L -17.2 3.55
Q -17.05 3.6 -17 3.7
L -16.8 3.45
Q -16.7 3.55 -16.6 3.65
L -16.4 3.4
Q -16.35 3.45 -16.3 3.5
L -16.25 3.5
Q -16.25 3.55 -16.2 3.6
L -16.15 3.5 -15.8 3.45
Q -15.75 3.55 -15.75 3.7
L -15.25 3.6
Q -15.25 3.75 -15.2 3.9
L -14.65 3.8
Q -14.65 3.9 -14.65 4.05
L -14.1 3.95
Q -14.05 4.1 -14.05 4.25
L -12 4.05 -12 4
Q -12 3.95 -12 3.9 -12 3.85 -12 3.8
L -11.45 3.75
Q -11.45 3.6 -11.45 3.5
L -11.2 3.45
Q -11.2 3.35 -11.2 3.2
L -10.95 3.2
Q -10.95 3.05 -10.95 2.9
L -10.7 2.9
Q -10.7 2.65 -10.7 2.35
L -10.45 2.35
Q -10.45 2.25 -10.45 2.1
L -10.2 2.1
Q -10.2 1.85 -10.25 1.55
L -9.95 1.55
Q -10 1.4 -10 1.25 -10 0.95 -10 0.7
L -9.8 0.7
Q -9.8 0.55 -9.8 0.45
L -9.5 0.4
Q -9.5 0.25 -9.5 0.05
L -9.5 0 -10.2 0
Q -10.75 0 -11.35 0
L -12.9 0 -12.9 -0.3 -13.05 -0.3
Q -13.3 -0.3 -13.6 -0.3
L -14.8 -0.3
M -37.7 -0.95
Q -37.6 -0.9 -37.5 -0.8
L -37.5 -0.75 -37.55 -0.75 -37.55 -0.7 -37.6 -0.7 -37.6 -0.65
Q -37.6 -0.6 -37.65 -0.6 -37.3 -0.35 -37 -0.1
L -37.15 0.1
Q -36.8 0.4 -36.45 0.7
L -36.25 0.45
Q -36.05 0.6 -35.9 0.75
L -35.75 0.55
Q -35.7 0.55 -35.65 0.6
L -35.65 0.65 -35.7 0.65
Q -35.6 0.75 -35.5 0.85
L -35.5 0.8 -35.45 0.8
Q -35.45 0.75 -35.4 0.75
L -35.4 0.7 -35.35 0.7 -35.35 0.65 -35.3 0.65
Q -35.2 0.75 -35.05 0.9
L -35.15 0.95
Q -35 1.05 -34.9 1.15
L -35.1 1.35
Q -34.85 1.5 -34.65 1.7
L -34.8 1.9
Q -34.15 2.4 -33.5 2.9
L -33.35 2.65
Q -33.15 2.85 -32.9 3
L -32.75 2.75
Q -32.6 2.85 -32.5 2.95
L -32.35 2.75
Q -32.25 2.8 -32.15 2.9
L -32 2.65
Q -31.9 2.75 -31.75 2.85
L -31.6 2.6
Q -31.55 2.65 -31.5 2.7
L -31.45 2.7 -31.4 2.75 -31.3 2.7 -30.95 2.6
Q -30.95 2.75 -30.95 2.9
L -30.4 2.8
Q -30.4 2.95 -30.4 3.05
L -29.85 3
Q -29.8 3.1 -29.8 3.25
L -29.25 3.15
Q -29.25 3.3 -29.25 3.45
L -27.15 3.25 -27.15 3.2
Q -27.15 3.15 -27.15 3.1 -27.15 3.05 -27.15 2.95
L -26.6 2.95
Q -26.6 2.8 -26.65 2.7
L -26.4 2.65
Q -26.4 2.55 -26.4 2.4
L -26.15 2.35
Q -26.15 2.25 -26.15 2.1
L -25.85 2.1
Q -25.9 1.85 -25.9 1.55
L -25.6 1.55
Q -25.65 1.4 -25.65 1.3
L -25.35 1.3
Q -25.4 1 -25.4 0.75
L -25.15 0.75
Q -25.15 0.6 -25.15 0.4 -25.15 0.15 -25.2 -0.1
L -24.95 -0.1
Q -24.95 -0.25 -24.95 -0.35
L -24.7 -0.4
Q -24.7 -0.55 -24.7 -0.75 -24.7 -0.9 -24.7 -1
L -24.7 -1.05 -24.75 -1.05 -24.75 -1.4
Q -25 -1.4 -25.3 -1.4 -25.9 -1.4 -26.5 -1.4 -27.05 -1.4 -27.6 -1.4 -27.9 -1.4 -28.2 -1.4
L -28.2 -1.1
Q -28.5 -1.1 -28.8 -1.1 -29.35 -1.1 -29.95 -1.1 -30.55 -1.1 -31.1 -1.1 -31.5 -1.1 -31.95 -1.1
L -31.95 -1.35
Q -32.1 -1.35 -32.25 -1.35 -32.85 -1.35 -33.4 -1.35 -34.05 -1.35 -34.65 -1.35 -35.2 -1.35 -35.8 -1.35 -36.35 -1.35 -36.9 -1.35 -37.3 -1.35 -37.7 -1.35
L -37.7 -0.95
M -47.45 -2.25
L -47.4 -2.2 -47.4 -2.25 -47.45 -2.25
M -51.2 -3.25
L -51.25 -3.25 -53.5 -4.05 -53.65 -3.85 -53.65 -3.8 -53.7 -3.7
Q -53.65 -3.6 -53.55 -3.55
L -53.7 -3.35
Q -53.6 -3.3 -53.55 -3.2
L -53.7 -3.05
Q -53.6 -2.95 -53.5 -2.85
L -53.65 -2.7 -53.65 -2.6 -53.7 -2.6 -53.7 -2.5 -53.75 -2.5 -53.75 -2.45
Q -53.7 -2.4 -53.55 -2.3
L -53.6 -2.3 -53.6 -2.25 -53.65 -2.25 -53.65 -2.2 -53.7 -2.2 -53.7 -2.05
Q -53.6 -2 -53.5 -1.95
L -53.5 -1.9 -53.55 -1.9 -53.55 -1.85 -53.6 -1.85 -53.6 -1.8 -53.65 -1.8 -53.65 -1.7
Q -53.55 -1.6 -53.45 -1.55
L -53.5 -1.55 -53.5 -1.45 -53.55 -1.45 -53.55 -1.4 -53.6 -1.35
Q -53.3 -1.1 -52.95 -0.85
L -53.15 -0.65
Q -52.8 -0.35 -52.4 -0.05
L -52.25 -0.3
Q -52.05 -0.15 -51.85 0
L -51.7 -0.2
Q -51.65 -0.15 -51.6 -0.15
L -51.6 -0.1 -51.65 -0.1
Q -51.55 0 -51.45 0.1
L -51.45 0.05 -51.4 0.05 -51.4 0 -51.35 0 -51.35 -0.05 -51.3 -0.05 -51.3 -0.1
Q -51.15 0 -51.05 0.15
L -51.1 0.2
Q -51 0.3 -50.9 0.4
L -51.05 0.6
Q -50.85 0.75 -50.6 0.95
L -50.75 1.15
Q -50.1 1.65 -49.5 2.15
L -49.3 1.9
Q -49.1 2.1 -48.85 2.25
L -48.7 2.05
Q -48.6 2.1 -48.45 2.2
L -48.3 2
Q -48.2 2.05 -48.1 2.15
L -47.95 1.9
Q -47.85 2 -47.75 2.1
L -47.55 1.85
Q -47.5 1.9 -47.45 1.95
L -47.4 1.95
Q -47.4 2 -47.35 2.05
L -47.25 1.95 -46.95 1.9
Q -46.9 2 -46.9 2.15
L -46.4 2.05
Q -46.35 2.2 -46.35 2.35
L -45.8 2.25
Q -45.8 2.35 -45.8 2.5
L -45.25 2.4
Q -45.2 2.55 -45.2 2.7
L -43.1 2.5 -43.1 2.45
Q -43.1 2.4 -43.1 2.35 -43.1 2.3 -43.15 2.25
L -42.6 2.2
Q -42.6 2.05 -42.6 1.95
L -42.35 1.9
Q -42.35 1.8 -42.35 1.65
L -42.1 1.65
Q -42.1 1.5 -42.1 1.35
L -41.85 1.35
Q -41.85 1.1 -41.85 0.8
L -41.6 0.8
Q -41.6 0.65 -41.6 0.55
L -41.35 0.55
Q -41.35 0.3 -41.35 0
L -41.1 0
Q -41.1 -0.15 -41.1 -0.3 -41.15 -0.6 -41.15 -0.85
L -40.9 -0.85
Q -40.95 -1 -40.95 -1.1
L -40.65 -1.15
Q -40.7 -2 -40.75 -2.9 -40.75 -2.95 -40.75 -3.05
L -40.95 -3.1 -41.25 -3.1 -41.25 -3.05 -41.4 -3.05
Q -41.4 -3 -41.45 -3.05
L -41.45 -3 -41.5 -3 -41.5 -3.05
Q -41.55 -3.05 -41.55 -3
L -41.65 -3 -41.65 -2.95 -42 -2.95 -42.05 -2.9 -42.3 -2.9 -42.35 -2.85 -42.4 -2.9 -42.4 -2.85 -42.55 -2.85
Q -42.55 -2.75 -42.55 -2.7 -42.55 -2.65 -42.55 -2.6
L -42.55 -2.55 -42.7 -2.55
Q -42.75 -2.5 -42.75 -2.55
L -42.8 -2.5 -42.85 -2.5 -42.9 -2.55 -42.95 -2.5 -43 -2.5 -43.05 -2.45 -43.35 -2.45 -43.4 -2.4 -43.4 -2.45 -43.45 -2.4 -43.7 -2.4 -43.75 -2.35 -43.85 -2.35 -43.85 -2.3
Q -43.85 -2.25 -43.8 -2.1
L -43.85 -2.1
Q -43.89921875 -2.1 -43.9 -2.05 -43.90078125 -2.09921875 -43.95 -2.05
L -44.2 -2.05 -44.2 -2
Q -44.25 -2 -44.3 -2
L -44.45 -2
Q -44.5 -2 -44.5 -1.95
L -44.8 -1.95
Q -44.85 -1.95 -44.85 -1.9
L -45.05 -1.9 -45.1 -1.85 -45.25 -1.85 -45.3 -1.8 -45.35 -1.85 -45.4 -1.85 -46.35 -1.8 -46.4 -1.8
Q -46.4 -1.85 -46.45 -1.8
L -46.45 -1.85
Q -46.5 -1.8 -46.5 -1.85
L -46.6 -1.85
Q -46.6 -1.9 -46.65 -1.9 -46.7 -1.9 -46.7 -1.95
L -46.8 -1.95 -46.85 -2 -46.9 -2
Q -46.95 -2 -46.95 -2.05
L -47.05 -2.05 -47.1 -2.1 -47.1 -2.05 -47.15 -2.1 -47.15 -2.15
Q -47.2 -2.1 -47.2 -2.15
L -47.25 -2.2
Q -47.3 -2.2 -47.35 -2.2
L -47.4 -2.2 -47.45 -2.2
Q -47.45 -2.25 -47.5 -2.25 -47.5 -2.2 -47.55 -2.25
L -47.6 -2.25 -47.6 -2.3 -47.7 -2.3 -47.7 -2.35
Q -47.75 -2.35 -47.8 -2.35
L -47.8 -2.4 -47.9 -2.4 -48 -2.45
Q -48.1 -2.4 -48.1 -2.25
L -48.2 -2.25 -48.2 -2.3 -48.3 -2.3 -48.3 -2.35
Q -48.301171875 -2.301171875 -48.35 -2.35 -48.35 -2.3 -48.4 -2.35 -48.4 -2.4 -48.45 -2.4
L -48.6 -2.4 -48.6 -2.45 -48.75 -2.45 -48.75 -2.5 -48.85 -2.5 -48.85 -2.55 -49 -2.55 -49.05 -2.6
Q -49.05 -2.65 -49.1 -2.65
L -49.2 -2.65 -49.25 -2.7 -49.25 -2.75
Q -49.3 -2.7 -49.3 -2.75 -49.3484375 -2.75 -49.35 -2.7
L -49.35 -2.75 -49.4 -2.75
Q -49.5 -2.65 -49.55 -2.55
L -49.6 -2.6 -49.6 -2.55
Q -49.648828125 -2.598828125 -49.65 -2.55
L -49.65 -2.6
Q -49.7 -2.6 -49.7 -2.65
L -49.85 -2.65 -49.85 -2.7 -49.95 -2.7 -49.95 -2.75 -50.1 -2.75 -50.1 -2.8 -50.2 -2.8 -50.2 -2.85 -50.3 -2.85 -50.35 -2.9 -50.4 -2.9 -50.4 -2.95 -50.6 -2.95 -50.6 -3 -50.65 -3 -50.7 -3.05 -50.8 -3.05 -50.8 -3.1 -50.85 -3.1 -50.85 -3.15
Q -50.851171875 -3.1 -50.9 -3.1
L -50.95 -3.1 -50.95 -3.15 -51.05 -3.2 -51.15 -3.2
Q -51.15 -3.25 -51.2 -3.25
M -51.75 -3.2
L -51.7 -3.15 -51.9 -3.2 -53.35 -3.7 -51.75 -3.2
M -48.7 -2.25
L -48.7 -2.2 -48.75 -2.25 -48.7 -2.25
M -41.05 -2.8
L -41.1 -2.8 -41.05 -2.85 -41.05 -2.8
M -67.6 -4.55
L -67.65 -4.6 -67.65 -4.55 -67.7 -4.6 -67.7 -4.55 -67.75 -4.55 -67.9 -4.7
Q -68 -4.6 -68.1 -4.5
L -68.3 -4.65
Q -68.35 -4.6 -68.4 -4.5 -68.5 -4.6 -68.6 -4.7
L -68.75 -4.5
Q -68.85 -4.6 -68.95 -4.65
L -69.15 -4.5
Q -69.2 -4.6 -69.3 -4.65
L -69.7 -4.2
Q -69.6 -4.15 -69.5 -4.05
L -69.7 -3.85 -69.75 -3.85 -69.95 -3.65 -69.9 -3.65
Q -69.85 -3.55 -69.8 -3.5
L -69.95 -3.35
Q -69.85 -3.25 -69.75 -3.15
L -69.9 -3
Q -69.85 -2.9 -69.75 -2.85
L -69.9 -2.65
Q -69.85 -2.55 -69.75 -2.5
L -69.9 -2.3 -69.85 -2.3 -69.85 -2.25 -69.9 -2.25 -69.9 -2.2 -69.95 -2.15 -69.95 -2.1 -70 -2.1
Q -69.9 -2 -69.8 -1.95
L -69.8 -1.9 -69.85 -1.9 -69.85 -1.85 -69.9 -1.85 -69.9 -1.75 -69.95 -1.75
Q -69.95 -1.7 -69.9 -1.7 -69.8 -1.6 -69.75 -1.55
L -69.75 -1.5 -69.8 -1.5 -69.8 -1.45 -69.85 -1.45 -69.85 -1.35 -69.9 -1.35
Q -69.8 -1.25 -69.7 -1.15
L -69.7 -1.1 -69.75 -1.1 -69.75 -1.05 -69.8 -1.05 -69.8 -1
Q -69.8 -0.95 -69.85 -0.95 -69.5 -0.7 -69.2 -0.45
L -69.35 -0.25
Q -69 0.05 -68.65 0.35
L -68.45 0.1
Q -68.25 0.25 -68.1 0.4
L -67.9 0.15
Q -67.9 0.2 -67.85 0.25
L -67.85 0.3 -67.9 0.3
Q -67.8 0.4 -67.7 0.45
L -67.65 0.45 -67.65 0.4 -67.6 0.4 -67.6 0.35 -67.55 0.35 -67.55 0.3 -67.5 0.3
Q -67.4 0.4 -67.25 0.55
L -67.3 0.6
Q -67.2 0.7 -67.1 0.8
L -67.25 1
Q -67.05 1.15 -66.85 1.3
L -67 1.5
Q -66.35 2.05 -65.7 2.55
L -65.5 2.3
Q -65.3 2.5 -65.1 2.65
L -64.9 2.4
Q -64.8 2.5 -64.7 2.55
L -64.55 2.4
Q -64.45 2.45 -64.35 2.55
L -64.2 2.3
Q -64.05 2.4 -63.95 2.5
L -63.8 2.25
Q -63.75 2.3 -63.7 2.35
L -63.65 2.35
Q -63.6 2.4 -63.55 2.4
L -63.5 2.35 -63.15 2.25
Q -63.15 2.4 -63.1 2.55
L -62.6 2.45
Q -62.6 2.6 -62.6 2.7
L -62.05 2.6
Q -62 2.75 -62 2.85
L -61.45 2.8
Q -61.45 2.95 -61.4 3.05
L -59.35 2.9
Q -59.35 2.85 -59.35 2.8
L -59.35 2.75
Q -59.35 2.7 -59.35 2.6
L -58.8 2.55
Q -58.8 2.45 -58.8 2.3
L -58.55 2.3
Q -58.55 2.15 -58.6 2.05
L -58.3 2
Q -58.3 1.9 -58.35 1.75
L -58.05 1.7
Q -58.1 1.45 -58.1 1.2
L -57.8 1.2
Q -57.85 1.05 -57.85 0.95
L -57.55 0.95
Q -57.6 0.65 -57.6 0.4
L -57.35 0.35
Q -57.35 0.2 -57.35 0.05 -57.35 -0.2 -57.4 -0.45
L -57.15 -0.45
Q -57.15 -0.6 -57.15 -0.75
L -56.85 -0.75
Q -56.95 -1.65 -57 -2.5 -57 -2.75 -57 -3 -57.05 -3.5 -57.1 -4
L -57.1 -4.05 -57.25 -4.05 -57.35 -4.1 -57.4 -4.05 -57.45 -4.05 -57.5 -4 -57.55 -4
Q -57.5990234375 -3.9509765625 -57.6 -4
L -57.6 -3.95 -57.65 -3.95
Q -57.7 -3.95 -57.7 -3.9
L -57.8 -3.9 -57.8 -3.85 -57.85 -3.85 -57.9 -3.8 -57.95 -3.8
Q -57.95 -3.75 -58 -3.75
L -58.1 -3.75 -58.15 -3.7 -58.2 -3.7 -58.2 -3.65 -58.25 -3.65 -58.3 -3.6 -58.35 -3.6 -58.35 -3.55
Q -58.4 -3.6 -58.45 -3.55
L -58.5 -3.55 -58.55 -3.5 -58.55 -3.45
Q -58.6 -3.5 -58.6 -3.45
L -58.7 -3.45
Q -58.7 -3.4 -58.75 -3.4
L -58.8 -3.4 -58.8 -3.35 -58.9 -3.35 -58.9 -3.3 -59 -3.3 -59 -3.25
Q -59 -3.2 -58.95 -3.1
L -58.95 -3
Q -59 -3 -59 -2.95
L -59.1 -2.95 -59.15 -2.9 -59.2 -2.9 -59.2 -2.85 -59.25 -2.9 -59.25 -2.85 -59.3 -2.85 -59.35 -2.8 -59.4 -2.8 -59.45 -2.75
Q -59.5 -2.75 -59.55 -2.75
L -59.55 -2.7 -59.65 -2.7 -59.65 -2.65 -59.7 -2.65 -59.75 -2.6 -59.8 -2.6 -59.8 -2.55 -59.95 -2.55 -60.05 -2.45 -60.1 -2.45 -60.1 -2.4
Q -60.1 -2.3 -60 -2.2
L -60.05 -2.2 -60.1 -2.15
Q -60.15 -2.15 -60.15 -2.1
L -60.2 -2.1 -60.3 -2.05 -60.35 -2.05 -60.35 -2 -60.5 -2 -60.5 -1.95 -60.55 -1.95 -60.6 -1.9 -60.65 -1.9 -60.65 -1.85
Q -60.7 -1.9 -60.7 -1.85
L -60.75 -1.85 -60.8 -1.8 -60.85 -1.8 -60.9 -1.75 -60.95 -1.75 -61.1 -1.65 -61.15 -1.65 -61.2 -1.6 -61.25 -1.6
Q -61.25 -1.55 -61.3 -1.55
L -61.4 -1.55
Q -61.45 -1.55 -61.45 -1.5
L -61.5 -1.5 -61.5 -1.45 -62.65 -1.4 -62.65 -1.45 -62.7 -1.45 -62.7 -1.5
Q -62.7 -1.55 -62.75 -1.5
L -62.75 -1.55 -62.85 -1.55 -62.85 -1.6 -62.9 -1.6 -62.9 -1.65 -62.95 -1.65 -62.95 -1.7 -63 -1.75 -63.1 -1.75 -63.1 -1.8 -63.15 -1.8 -63.15 -1.85 -63.2 -1.85 -63.3 -1.95 -63.35 -1.95 -63.35 -2 -63.4 -2 -63.4 -2.05 -63.45 -2.05
Q -63.45 -2.1 -63.5 -2.1
L -63.55 -2.1 -63.55 -2.15 -63.6 -2.2 -63.7 -2.2 -63.7 -2.25 -63.75 -2.25 -63.75 -2.3 -63.8 -2.3
Q -63.8 -2.35 -63.85 -2.35
L -63.9 -2.4 -63.95 -2.4 -63.95 -2.45 -64 -2.45 -64.05 -2.5
Q -64.05 -2.55 -64.1 -2.55 -64.2 -2.45 -64.25 -2.4
L -64.25 -2.35 -64.3 -2.35
Q -64.3 -2.4 -64.35 -2.4
L -64.35 -2.45 -64.4 -2.45 -64.45 -2.5 -64.5 -2.5 -64.6 -2.6 -64.65 -2.6 -64.65 -2.65 -64.7 -2.65 -64.7 -2.7
Q -64.75 -2.7 -64.8 -2.7
L -64.8 -2.75 -64.85 -2.75 -64.85 -2.8 -64.9 -2.8 -64.9 -2.85
Q -64.95 -2.85 -64.95 -2.9 -65 -2.85 -65 -2.9
L -65.05 -2.9 -65.05 -2.95 -65.1 -2.95
Q -65.1 -3 -65.15 -3
L -65.15 -3.05 -65.2 -3.05 -65.25 -3.1 -65.25 -3.15 -65.35 -3.15 -65.4 -3.2
Q -65.5 -3.1 -65.55 -3
L -65.55 -3.05 -65.65 -3.05 -65.65 -3.1 -65.7 -3.1 -65.7 -3.15 -65.75 -3.15 -65.75 -3.2 -65.8 -3.2 -65.8 -3.25 -65.85 -3.25 -65.95 -3.35 -66 -3.35 -66 -3.4 -66.05 -3.4 -66.1 -3.45 -66.15 -3.45
Q -66.15 -3.5 -66.2 -3.5
L -66.25 -3.55
Q -66.3 -3.55 -66.3 -3.6
L -66.35 -3.6 -66.35 -3.65 -66.4 -3.65
Q -66.4 -3.7 -66.45 -3.7
L -66.45 -3.75
Q -66.5 -3.7 -66.5 -3.75
L -66.55 -3.8 -66.6 -3.8 -66.65 -3.85
Q -66.65 -3.9 -66.7 -3.9
L -66.75 -3.9 -66.75 -3.95 -66.8 -3.95 -66.8 -4 -66.85 -4
Q -66.85 -4.05 -66.9 -4.05
L -66.95 -4.05
Q -66.95 -4.1 -67 -4.1
L -67 -4.15 -67.05 -4.15 -67.6 -4.55
M -81.95 -4.85
Q -81.95 -4.9 -82 -4.9
L -82 -4.95 -82.05 -4.95 -82.05 -5 -82.1 -5.05 -82.35 -5.05 -82.35 -5 -83.1 -5 -83.1 -4.95 -83.6 -4.95
Q -83.6 -4.85 -83.6 -4.75
L -83.85 -4.75
Q -83.85 -4.7 -83.8 -4.6
L -83.9 -4.5 -83.9 -4.55
Q -84 -4.6 -84.05 -4.7
L -84.2 -4.55
Q -84.3 -4.6 -84.4 -4.7
L -84.55 -4.55
Q -84.6 -4.65 -84.7 -4.7
L -84.9 -4.5
Q -85 -4.6 -85.05 -4.7
L -85.5 -4.25
Q -85.45 -4.15 -85.35 -4.05
L -85.5 -3.85 -85.7 -3.65
Q -85.6 -3.6 -85.55 -3.5
L -85.75 -3.35
Q -85.65 -3.3 -85.55 -3.2
L -85.7 -3.05
Q -85.65 -2.95 -85.55 -2.85
L -85.7 -2.65
Q -85.6 -2.6 -85.5 -2.5
L -85.65 -2.35 -85.65 -2.3
Q -85.7 -2.3 -85.7 -2.25
L -85.7 -2.2 -85.75 -2.2 -85.75 -2.15 -85.8 -2.15 -85.8 -2.1
Q -85.7 -2.05 -85.55 -1.95
L -85.6 -1.95 -85.6 -1.9 -85.65 -1.9 -85.65 -1.85 -85.7 -1.85 -85.7 -1.8 -85.75 -1.8 -85.75 -1.75 -85.7 -1.75
Q -85.6 -1.65 -85.5 -1.6
L -85.6 -1.5 -85.6 -1.45 -85.65 -1.45 -85.65 -1.4 -85.7 -1.4
Q -85.6 -1.3 -85.45 -1.2
L -85.45 -1.15 -85.5 -1.15 -85.5 -1.1 -85.55 -1.1 -85.55 -1.05 -85.6 -1.05 -85.6 -1
Q -85.3 -0.75 -85 -0.5
L -85.15 -0.25
Q -84.8 0 -84.4 0.3
L -84.25 0.05
Q -84.1 0.2 -83.85 0.35
L -83.75 0.15
Q -83.7 0.2 -83.65 0.2 -83.65 0.25 -83.7 0.25 -83.6 0.35 -83.5 0.45 -83.45 0.45 -83.45 0.4
L -83.4 0.35 -83.4 0.3 -83.35 0.3 -83.35 0.25 -83.3 0.25
Q -83.15 0.35 -83.05 0.5
L -83.1 0.55
Q -83 0.65 -82.9 0.75
L -83.05 0.95
Q -82.85 1.15 -82.65 1.25
L -82.8 1.5
Q -82.1 2 -81.45 2.5
L -81.35 2.3
Q -81.1 2.45 -80.85 2.6
L -80.7 2.35
Q -80.6 2.45 -80.5 2.55
L -80.3 2.35
Q -80.2 2.4 -80.15 2.5
L -79.95 2.25
Q -79.85 2.35 -79.75 2.45
L -79.6 2.25
Q -79.5 2.25 -79.45 2.3
L -79.4 2.3 -79.35 2.35 -79.25 2.3 -78.9 2.25
Q -78.9 2.35 -78.9 2.5
L -78.4 2.4
Q -78.4 2.55 -78.35 2.65
L -77.85 2.55
Q -77.8 2.7 -77.8 2.8
L -77.25 2.75
Q -77.2 2.9 -77.2 3.05
L -76.85 2.95 -75.1 2.85 -75.1 2.8
Q -75.1 2.75 -75.15 2.7 -75.15 2.65 -75.15 2.6
L -74.6 2.55
Q -74.6 2.4 -74.6 2.3
L -74.35 2.3
Q -74.35 2.15 -74.35 2
L -74.1 1.95
Q -74.15 1.85 -74.15 1.7
L -73.85 1.7
Q -73.85 1.45 -73.85 1.15
L -73.6 1.15
Q -73.65 1.05 -73.65 0.9
L -73.35 0.85
Q -73.35 0.6 -73.35 0.35
L -73.1 0.35
Q -73.15 0.2 -73.15 0.05 -73.15 -0.25 -73.15 -0.5
L -72.9 -0.5
Q -72.95 -0.65 -72.95 -0.75
L -72.65 -0.8
Q -72.75 -2.45 -72.85 -4.05 -72.85 -4.15 -72.85 -4.2
L -73.15 -4.15 -73.2 -4.7 -73.45 -4.7
Q -73.45 -4.95 -73.5 -5.25
L -73.75 -5.25
Q -73.75 -5.45 -73.75 -5.7
L -74.5 -5.65 -74.6 -5.55 -74.65 -5.45 -74.85 -5.25 -74.9 -5.25 -74.9 -5.2 -75 -5.1 -75.05 -5.1 -75.05 -5 -75.1 -5 -75.1 -4.95
Q -75.15 -4.95 -75.15 -4.9
L -75.2 -4.9 -75.2 -4.85
Q -75.25 -4.85 -75.25 -4.8
L -75.3 -4.8 -75.3 -4.75 -75.35 -4.75 -75.35 -4.65 -75.4 -4.65 -75.4 -4.6 -75.45 -4.6 -75.45 -4.55 -75.5 -4.55 -75.5 -4.5 -75.55 -4.5 -75.55 -4.45 -75.6 -4.45 -75.6 -4.4 -75.65 -4.4 -75.65 -4.35 -75.7 -4.35 -75.7 -4.3 -75.75 -4.3
Q -75.75 -4.25 -75.8 -4.25
L -75.8 -4.2
Q -75.7 -4.15 -75.6 -4.05
L -75.6 -4 -75.65 -4 -75.65 -3.95 -75.7 -3.95 -75.7 -3.9 -75.75 -3.9 -75.75 -3.85 -75.8 -3.85 -75.8 -3.8 -75.85 -3.8 -75.85 -3.75 -75.9 -3.75 -75.9 -3.7 -75.95 -3.7 -75.95 -3.65 -76 -3.65 -76 -3.6 -76.05 -3.6 -76.05 -3.55 -76.1 -3.5 -76.1 -3.45 -76.15 -3.45 -76.15 -3.35 -76.2 -3.35 -76.2 -3.3 -76.25 -3.3 -76.25 -3.25 -76.3 -3.25
Q -76.3 -3.2 -76.35 -3.2
L -76.35 -3.15 -76.4 -3.15
Q -76.4 -3.1 -76.45 -3.1
L -76.45 -3.05 -76.5 -3.05
Q -76.4 -2.95 -76.3 -2.85
L -76.35 -2.85 -76.35 -2.8 -76.4 -2.8 -76.4 -2.75 -76.45 -2.75 -76.45 -2.7 -76.5 -2.7 -76.5 -2.65 -76.55 -2.65
Q -76.5 -2.6 -76.55 -2.6
L -76.55 -2.55 -76.6 -2.55
Q -76.6 -2.5 -76.65 -2.5
L -76.65 -2.45 -76.7 -2.45
Q -76.7 -2.4 -76.75 -2.4
L -76.75 -2.3 -76.8 -2.3 -76.8 -2.25 -76.85 -2.25 -77.05 -2.05
Q -77.1 -2.05 -77.1 -2
L -77.15 -2 -77.15 -1.95 -77.3 -1.8 -77.25 -1.8 -77.3 -1.75 -77.35 -1.75 -77.35 -1.7
Q -77.4 -1.7 -77.4 -1.65
L -77.45 -1.65 -77.45 -1.55 -77.5 -1.55 -77.5 -1.5 -77.55 -1.5 -77.55 -1.45 -77.6 -1.45 -77.6 -1.4 -78.25 -1.4 -78.25 -1.35 -78.3 -1.35 -78.3 -1.4 -78.4 -1.5 -78.4 -1.55 -78.45 -1.55 -78.45 -1.6 -78.5 -1.6 -78.5 -1.65 -78.55 -1.7 -78.6 -1.7 -78.6 -1.75 -78.65 -1.75 -78.65 -1.8
Q -78.7 -1.8 -78.7 -1.85
L -78.7 -1.9 -78.75 -1.9 -78.75 -1.95 -78.8 -1.95 -78.8 -2
Q -78.85 -2 -78.85 -2.05
L -78.9 -2.1 -78.9 -2.15 -78.95 -2.15 -78.95 -2.2 -79 -2.2 -79 -2.3 -79.1 -2.3 -79.1 -2.35
Q -79.15 -2.35 -79.15 -2.4
L -79.2 -2.45 -79.25 -2.45 -79.25 -2.5 -79.3 -2.5 -79.3 -2.55
Q -79.35 -2.55 -79.35 -2.6
L -79.4 -2.65 -79.4 -2.7 -79.45 -2.7 -79.45 -2.75 -79.5 -2.75 -79.5 -2.8 -79.55 -2.85 -79.55 -2.9 -79.6 -2.9
Q -79.7 -2.85 -79.8 -2.75
L -79.8 -2.8 -79.85 -2.8 -79.85 -2.85 -79.9 -2.85 -79.95 -2.9 -79.95 -2.95 -80 -2.95 -80 -3 -80.05 -3 -80.05 -3.05 -80.1 -3.1 -80.1 -3.15 -80.2 -3.15 -80.2 -3.2 -80.25 -3.2 -80.25 -3.25 -80.3 -3.3 -80.3 -3.35 -80.35 -3.35 -80.35 -3.4 -80.4 -3.4 -80.4 -3.45
Q -80.45 -3.45 -80.45 -3.5
L -80.45 -3.55 -80.5 -3.55 -80.5 -3.6 -80.55 -3.6 -80.55 -3.65
Q -80.6 -3.65 -80.6 -3.7
L -80.6 -3.75 -80.65 -3.75 -80.65 -3.8 -80.7 -3.8
Q -80.8 -3.7 -80.9 -3.6
L -80.9 -3.65 -80.95 -3.7 -80.95 -3.75 -81 -3.75 -81 -3.8
Q -81.05 -3.8 -81.05 -3.85
L -81.1 -3.85
Q -81.1 -3.9 -81.15 -3.9
L -81.15 -3.95 -81.2 -3.95 -81.2 -4 -81.25 -4 -81.25 -4.05
Q -81.25 -4.1 -81.3 -4.1
L -81.3 -4.15 -81.35 -4.15 -81.35 -4.2 -81.4 -4.2 -81.4 -4.25
Q -81.4 -4.3 -81.45 -4.3
L -81.45 -4.35 -81.5 -4.35 -81.5 -4.4 -81.55 -4.35 -81.55 -4.4 -81.6 -4.45 -81.6 -4.5 -81.65 -4.5 -81.65 -4.55 -81.7 -4.55
Q -81.7 -4.6 -81.75 -4.6
L -81.8 -4.65 -81.8 -4.7 -81.85 -4.7 -81.85 -4.75 -81.9 -4.75 -81.9 -4.8 -81.95 -4.85
M 84.7 -0.25
L 84.45 -0.1
Q 84.55 0.1 84.7 0.25
L 84.95 0.05
Q 84.85 -0.1 84.7 -0.25
M 82.05 -1.3
Q 82.2 -1.2 82.35 -1.1
L 82.6 -1.4
Q 82.45 -1.5 82.25 -1.6
L 82.05 -1.3
M 82.4 -1.8
Q 82.5 -1.6 82.7 -1.5
L 82.9 -1.8
Q 82.75 -1.9 82.6 -2
L 82.4 -1.8
M 80.15 -1.5
L 80.35 -1.2
Q 80.5 -1.3 80.65 -1.4
L 80.45 -1.7
Q 80.3 -1.65 80.15 -1.5
M 78.8 -0.55
L 78.5 -0.8
Q 78.4 -0.7 78.25 -0.55
L 78.5 -0.3
Q 78.65 -0.4 78.8 -0.55
M 80.4 -1.9
L 80.2 -2.15
Q 80 -2.05 79.85 -1.95
L 80.05 -1.65
Q 80.25 -1.75 80.4 -1.9
M 78.2 -1.2
Q 78.05 -1.05 77.9 -0.9
L 78.1 -0.65
Q 78.3 -0.8 78.45 -0.95
L 78.2 -1.2 Z"/>
</g>
</defs>

<g transform="matrix( 1, 0, 0, 1, 86.45,9.45) ">
<g transform="matrix( 1, 0, 0, 1, 0,0) ">
<use xlink:href="#Symbol_1_0_Layer0_0_FILL"/>
</g>
</g>
</svg>
